#!OML:ASF Y:\EmotionMaleHayes\Project 1\Capture day 1\Session 1\Male1.ASF
:FULLY-SPECIFIED
:DEGREES
231
root -23.5534 16.6035 -4.35596 -0.858448 -6.10319 17.7808
lowerback 11.5497 -4.88674 -23.3783
upperback 4.00149 -9.02219 2.43746
thorax 2.11594 -5.20041 16.5197
lowerneck -18.507 13.4497 11.6645
upperneck 19.3439 18.6745 -13.0756
head 11.7872 7.96509 -3.41591
rclavicle -2.46493e-014 7.95139e-015
rhumerus -75.3202 -24.2278 -9.14977
rradius 35.758
rwrist -46.4476
rhand -18.9782 -49.7262
rfingers 7.12502
rthumb 7.32623 -79.5794
lclavicle -2.46493e-014 7.95139e-015
lhumerus 24.1731 21.9374 23.5316
lradius 39.7811
lwrist 25.436
lhand -38.3047 -17.7242
lfingers 7.12502
lthumb -11.3331 11.9496
rfemur -38.4799 1.56354 -7.59082
rtibia 80.7039
rfoot -11.6637 -5.04561
rtoes 12.6073
lfemur 14.8881 15.0325 -42.0351
ltibia 27.23
lfoot -24.6994 15.4607
ltoes -7.78185
232
root -23.439 16.5181 -4.48218 0.0905412 -4.75879 17.1752
lowerback 12.5122 -5.02948 -23.4326
upperback 4.06839 -9.44498 2.413
thorax 1.86025 -5.38693 16.6413
lowerneck -18.5142 13.6369 11.2128
upperneck 19.0838 19.0891 -13.2884
head 11.7272 8.1025 -3.33743
rclavicle -2.38542e-015 -4.13472e-014
rhumerus -75.6866 -21.6701 -10.2357
rradius 35.4928
rwrist -45.9222
rhand -18.2281 -49.0261
rfingers 7.12502
rthumb 8.05016 -78.8528
lclavicle -2.38542e-015 -4.13472e-014
lhumerus 27.3845 20.8612 26.1841
lradius 39.6799
lwrist 22.3193
lhand -37.1664 -19.196
lfingers 7.12502
lthumb -10.2352 10.535
rfemur -40.3434 0.549672 -6.39576
rtibia 83.3037
rfoot -11.6189 -4.26006
rtoes 14.2356
lfemur 15.1884 11.8166 -43.3579
ltibia 24.728
lfoot -26.532 14.9541
ltoes -3.98742
233
root -23.3422 16.4501 -4.60319 1.25332 -3.75899 15.7849
lowerback 13.2127 -5.11028 -22.7945
upperback 4.1104 -9.62993 2.63087
thorax 1.53364 -5.43603 16.6462
lowerneck -18.4655 13.7012 10.778
upperneck 19.18 19.3523 -13.4037
head 11.7597 8.17333 -3.2631
rclavicle 1.13307e-013 -3.18055e-015
rhumerus -76.049 -19.0237 -11.6253
rradius 35.0663
rwrist -44.831
rhand -17.6139 -48.4597
rfingers 7.12502
rthumb 8.64295 -78.2628
lclavicle 1.13307e-013 -3.18055e-015
lhumerus 30.1674 19.4063 28.8561
lradius 40.2413
lwrist 19.7915
lhand -35.8783 -20.3116
lfingers 7.12502
lthumb -8.99235 9.47672
rfemur -42.5193 0.151225 -3.9131
rtibia 85.7239
rfoot -11.5033 -3.09691
rtoes 14.4511
lfemur 15.2689 9.31683 -43.1581
ltibia 22.2874
lfoot -27.8238 14.6969
ltoes 0.243806
234
root -23.2449 16.4076 -4.72166 2.47455 -2.86275 13.3366
lowerback 13.8783 -5.21489 -20.938
upperback 4.24002 -9.64649 3.02578
thorax 1.05716 -5.37101 16.1677
lowerneck -18.7759 13.9207 10.4672
upperneck 19.4498 19.7053 -13.1844
head 11.905 8.30288 -3.04768
rclavicle -5.92378e-014 -9.54166e-015
rhumerus -76.5982 -16.6673 -13.2328
rradius 34.7278
rwrist -43.524
rhand -18.0319 -48.0935
rfingers 7.12502
rthumb 8.23954 -77.9129
lclavicle -5.92378e-014 -9.54166e-015
lhumerus 32.8179 17.5129 31.298
lradius 40.9967
lwrist 18.5678
lhand -34.4439 -21.9886
lfingers 7.12502
lthumb -7.608 7.85457
rfemur -44.6037 0.0646641 -0.0284624
rtibia 87.674
rfoot -11.3581 -1.57728
rtoes 12.672
lfemur 15.4032 7.80029 -41.1459
ltibia 19.7317
lfoot -28.1572 14.668
ltoes -0.0436932
235
root -23.1316 16.4228 -4.84122 3.61256 -1.97905 13.0628
lowerback 14.6851 -5.18623 -20.9824
upperback 4.26377 -9.78299 2.77238
thorax 0.659992 -5.38145 16.0194
lowerneck -18.7701 14.0841 10.5873
upperneck 19.1746 19.9325 -13.4592
head 11.88 8.3914 -3.11312
rclavicle 1.01977e-013 -2.22639e-014
rhumerus -77.1794 -14.9034 -14.6994
rradius 34.2463
rwrist -41.6849
rhand -18.5824 -48.1184
rfingers 7.12502
rthumb 7.7082 -77.9579
lclavicle 1.01977e-013 -2.22639e-014
lhumerus 35.6484 15.7539 33.8424
lradius 41.5493
lwrist 16.4275
lhand -32.6699 -22.7978
lfingers 7.12502
lthumb -5.89557 7.10022
rfemur -46.3287 -0.695112 1.23759
rtibia 88.9975
rfoot -11.0781 0.187006
rtoes 9.94289
lfemur 15.1561 6.85707 -41.4931
ltibia 17.5093
lfoot -27.9181 14.5175
ltoes -1.88753
236
root -23.0308 16.4599 -4.95042 5.42907 -1.74098 14.4846
lowerback 14.3966 -5.13392 -22.9487
upperback 4.20838 -9.93895 2.16005
thorax 1.07102 -5.51524 16.3409
lowerneck -18.4397 14.272 11.1251
upperneck 18.2042 20.1841 -14.4372
head 11.6806 8.49119 -3.49743
rclavicle -6.95746e-015 6.24184e-014
rhumerus -77.3698 -13.8698 -16.0102
rradius 33.5543
rwrist -39.3544
rhand -19.1324 -48.3791
rfingers 7.12502
rthumb 7.1773 -78.2374
lclavicle -6.95746e-015 6.24184e-014
lhumerus 38.2746 14.0809 36.3346
lradius 42.0333
lwrist 14.7336
lhand -30.9165 -23.1389
lfingers 7.12502
lthumb -4.20253 6.7994
rfemur -49.05 -1.43484 0.703559
rtibia 90.2384
rfoot -10.7304 2.03306
rtoes 7.58528
lfemur 13.8966 6.60063 -43.5466
ltibia 15.2851
lfoot -27.3601 13.9716
ltoes -1.58611
237
root -22.9336 16.5249 -5.05385 6.96372 -1.50819 15.1416
lowerback 14.562 -5.14742 -24.1544
upperback 4.24799 -10.1734 2.0715
thorax 1.12195 -5.64371 16.1341
lowerneck -18.0674 14.5846 11.7409
upperneck 17.4832 20.6616 -15.5205
head 11.6338 8.67885 -3.87926
rclavicle -9.3727e-014 2.5842e-014
rhumerus -77.3606 -13.2408 -17.0096
rradius 32.8915
rwrist -36.7959
rhand -20.1779 -48.5945
rfingers 7.12502
rthumb 6.16807 -78.4847
lclavicle -9.3727e-014 2.5842e-014
lhumerus 40.2518 12.0272 38.3904
lradius 42.7331
lwrist 14.0949
lhand -29.4789 -23.0129
lfingers 7.12502
lthumb -2.81419 6.94824
rfemur -50.9487 -1.75519 1.1236
rtibia 90.7122
rfoot -10.3194 4.07806
rtoes 7.28753
lfemur 13.1625 7.10729 -44.2691
ltibia 12.7208
lfoot -26.2238 12.921
ltoes -0.914912
238
root -22.8364 16.5989 -5.15045 8.32959 -1.37979 15.1715
lowerback 14.9562 -5.15732 -24.7225
upperback 4.25651 -10.3694 1.69516
thorax 1.04678 -5.72319 16.0182
lowerneck -17.6586 14.9601 12.4824
upperneck 17.1248 21.2542 -16.5768
head 11.7583 8.9158 -4.24425
rclavicle 1.6555e-014 3.60049e-014
rhumerus -77.3187 -12.9658 -17.5327
rradius 32.1296
rwrist -34.1202
rhand -21.2246 -49.016
rfingers 7.12502
rthumb 5.15752 -78.9332
lclavicle 1.6555e-014 3.60049e-014
lhumerus 41.2475 9.62697 39.3339
lradius 43.8658
lwrist 14.1504
lhand -27.7318 -23.4112
lfingers 7.12502
lthumb -1.12686 6.56556
rfemur -52.3771 -1.5911 2.29651
rtibia 90.6274
rfoot -9.75728 6.30767
rtoes 6.85375
lfemur 12.6452 8.08538 -44.1621
ltibia 10.2465
lfoot -24.9082 11.1635
ltoes 1.0057
239
root -22.7374 16.6753 -5.23535 9.42452 -1.32265 14.8859
lowerback 15.3619 -5.08531 -24.6174
upperback 4.40286 -10.3489 1.18112
thorax 0.874202 -5.67634 15.4174
lowerneck -17.3588 15.3549 12.704
upperneck 16.6847 21.8551 -17.1429
head 11.7484 9.17556 -4.3497
rclavicle 8.94531e-015 -6.77856e-014
rhumerus -77.6015 -12.8789 -17.744
rradius 31.5095
rwrist -32.2274
rhand -22.2313 -49.7569
rfingers 7.12502
rthumb 4.18537 -79.6956
lclavicle 8.94531e-015 -6.77856e-014
lhumerus 42.8796 6.99988 41.5016
lradius 44.3381
lwrist 12.8402
lhand -26.1174 -23.7978
lfingers 7.12502
lthumb 0.432319 6.18154
rfemur -53.2383 -1.14799 3.78428
rtibia 89.9683
rfoot -9.04859 8.59718
rtoes 5.46666
lfemur 12.3868 8.20544 -44.2231
ltibia 7.83124
lfoot -23.6332 10.4986
ltoes 2.68076
240
root -22.6378 16.7527 -5.31017 10.3658 -1.25235 14.5848
lowerback 16.0429 -5.17936 -24.8139
upperback 4.5832 -10.662 0.650081
thorax 0.791608 -5.81427 14.9731
lowerneck -16.9116 16.134 13.4248
upperneck 16.0223 22.8562 -17.7338
head 11.7665 9.66156 -4.43851
rclavicle 9.78021e-014 5.60573e-014
rhumerus -77.2328 -12.7784 -18.3107
rradius 31.2443
rwrist -31.2855
rhand -23.4523 -50.2986
rfingers 7.12502
rthumb 3.0063 -80.2572
lclavicle 9.78021e-014 5.60573e-014
lhumerus 43.7891 4.82583 43.5906
lradius 44.4948
lwrist 11.2118
lhand -24.6023 -23.9243
lfingers 7.12502
lthumb 1.89567 6.047
rfemur -53.6155 -0.688745 5.22471
rtibia 88.7349
rfoot -8.31702 10.7314
rtoes 3.94552
lfemur 12.5912 9.55292 -43.7248
ltibia 4.83569
lfoot -21.27 9.12091
ltoes 2.23873
241
root -22.5328 16.8331 -5.37879 11.2826 -1.15051 14.3194
lowerback 16.82 -5.27177 -24.9472
upperback 4.72815 -10.996 0.151618
thorax 0.623072 -5.94737 14.5593
lowerneck -15.5505 16.0717 14.333
upperneck 14.0699 22.5667 -18.7476
head 11.0196 9.67136 -5.05615
rclavicle 2.78299e-015 -2.46493e-014
rhumerus -76.8871 -12.8335 -18.6693
rradius 31.2739
rwrist -31.2361
rhand -24.6675 -50.6601
rfingers 7.12502
rthumb 1.83272 -80.632
lclavicle 2.78299e-015 -2.46493e-014
lhumerus 44.2672 2.51246 45.0439
lradius 44.679
lwrist 10.2485
lhand -23.4096 -23.6658
lfingers 7.12502
lthumb 3.0475 6.2922
rfemur -53.7828 -0.366159 6.62591
rtibia 87.133
rfoot -7.77851 12.5433
rtoes 2.28181
lfemur 12.906 12.1966 -42.7383
ltibia 1.86737
lfoot -18.2166 6.25243
ltoes 2.53507
